<svg xmlns="http://www.w3.org/2000/svg" width="24.9" height="24.936" viewBox="0 0 24.9 24.936"><g transform="translate(-0.35)"><g transform="translate(0.35 0)"><path d="M300.54,300.89a.557.557,0,0,0,0,.791l5.189,5.189.444-.444.347-.347-5.184-5.189A.563.563,0,0,0,300.54,300.89Z" transform="translate(-284.729 -285.043)" fill="#465a6f"/><path d="M25.25,12.465V11.3a.9.9,0,0,0-.743-.88l-2.319-.387a9.7,9.7,0,0,0-1.038-2.507L22.514,5.61a.894.894,0,0,0-.1-1.144L21.6,3.647l-.819-.819a.887.887,0,0,0-1.144-.092L17.718,4.1a9.7,9.7,0,0,0-2.507-1.037L14.819.743A.886.886,0,0,0,13.939,0H11.61a.925.925,0,0,0-.859.758l-.387,2.319A9.7,9.7,0,0,0,7.857,4.114L5.939,2.751a.894.894,0,0,0-1.144.1l-.814.829L3.162,4.5A.887.887,0,0,0,3.071,5.64L4.434,7.557a9.039,9.039,0,0,0-1.048,2.568l-2.294.392a.891.891,0,0,0-.743.88v2.329a.9.9,0,0,0,.743.88l2.339.4A9.756,9.756,0,0,0,4.48,17.5L3.106,19.382a.894.894,0,0,0,.1,1.144l.819.819.819.819a.887.887,0,0,0,1.144.092l1.928-1.373A9.65,9.65,0,0,0,10.42,21.9l.392,2.294a.89.89,0,0,0,.88.743h2.329a.9.9,0,0,0,.88-.743l.4-2.339c.2-.051.4-.112.6-.178.051-.015.107-.036.158-.056.163-.056.32-.117.478-.183l.107-.046c.188-.081.371-.168.554-.259.005-.005.01-.005.015-.01.183-.092.366-.193.539-.295.112-.066.224-.137.331-.209l-2.99-2.99a2.614,2.614,0,0,0-2.034-.743,4.6,4.6,0,0,1-4.776-5.722.144.144,0,0,1,.244-.066l1.866,1.866a1.435,1.435,0,0,0,2.024-.005l.849-.849a1.435,1.435,0,0,0,.005-2.024L11.3,8.122a.149.149,0,0,1,.056-.244,4.6,4.6,0,0,1,5.986,4.887,2.647,2.647,0,0,0,.743,2.167l2.833,2.833c.092-.142.178-.285.264-.427.1-.168.188-.336.275-.509l.076-.153c.056-.117.107-.234.163-.356.041-.092.081-.188.117-.28.025-.061.046-.127.071-.193.051-.132.1-.264.142-.4h0c.056-.183.112-.361.163-.544l2.319-.392a.886.886,0,0,0,.743-.88Z" transform="translate(-0.35 0)" fill="#465a6f"/></g></g></svg>
