<svg width="127" height="33" viewBox="0 0 127 33" fill="none" xmlns="http://www.w3.org/2000/svg">
<path d="M10.836 3.655V27.606H7.353V3.655H0V0.515999H18.232V3.655H10.836Z" fill="#4A596D"/>
<path d="M24.099 6.321C29.0583 6.321 31.538 9.96167 31.538 17.243C31.538 24.467 29.0583 28.079 24.099 28.079C19.111 28.079 16.617 24.467 16.617 17.243C16.617 9.96167 19.111 6.321 24.099 6.321ZM24.099 9.245C21.3756 9.245 20.014 11.653 20.014 16.469V17.931C20.014 22.7757 21.3756 25.198 24.099 25.198C26.7936 25.198 28.141 22.7757 28.141 17.931V16.469C28.141 14.0897 27.797 12.298 27.109 11.094C26.4496 9.86133 25.4463 9.245 24.099 9.245Z" fill="#4A596D"/>
<path d="M45.0596 15.738C44.8876 14.8493 44.7443 13.9033 44.6296 12.9C44.5436 11.8967 44.4863 11.2517 44.4576 10.965H44.2426C44.214 11.2517 44.1423 11.8967 44.0276 12.9C43.9416 13.8747 43.8126 14.8207 43.6406 15.738L41.4906 27.606H37.9216L32.7186 6.794H36.2446L38.9106 18.533C39.0826 19.221 39.2403 20.124 39.3836 21.242C39.5556 22.36 39.656 23.091 39.6846 23.435H39.8566C39.8853 23.1197 39.957 22.5033 40.0716 21.586C40.1863 20.64 40.3296 19.6223 40.5016 18.533L42.6086 6.794H46.3496L48.4996 18.533C48.6716 19.6223 48.815 20.64 48.9296 21.586C49.0443 22.5033 49.116 23.1197 49.1446 23.435H49.2736C49.3023 23.1483 49.3883 22.5033 49.5316 21.5C49.7036 20.4967 49.9043 19.5077 50.1336 18.533L52.7136 6.794H56.0246L50.8216 27.606H47.2096L45.0596 15.738Z" fill="#4A596D"/>
<path d="M66.1493 6.321C67.8119 6.321 69.0876 6.82267 69.9763 7.826C70.8649 8.80067 71.3093 10.406 71.3093 12.642V27.606H68.0843V12.857C68.0843 11.5097 67.8263 10.578 67.3103 10.062C66.8229 9.51733 66.0919 9.245 65.1173 9.245C64.0566 9.245 63.1536 9.761 62.4083 10.793C61.6629 11.7963 61.2903 13.1723 61.2903 14.921V27.606H58.0223V6.794H60.4733L60.9463 9.245H61.1613C62.2506 7.29567 63.9133 6.321 66.1493 6.321Z" fill="#4A596D"/>
<path d="M92.6772 0C95.1999 0 97.2352 0.630666 98.7832 1.892C100.36 3.15333 101.148 5.074 101.148 7.654V8.127H97.5792V7.525C97.5792 6.17767 97.1206 5.13133 96.2032 4.386C95.3146 3.612 94.1679 3.225 92.7632 3.225C91.2439 3.225 90.0256 3.54033 89.1082 4.171C88.1909 4.80167 87.7322 5.74767 87.7322 7.009C87.7322 7.92633 87.9902 8.686 88.5062 9.288C89.0509 9.86133 89.7102 10.3343 90.4842 10.707C91.2869 11.051 92.3762 11.4523 93.7522 11.911C95.5009 12.4843 96.9056 13.029 97.9662 13.545C99.0269 14.061 99.9299 14.8207 100.675 15.824C101.449 16.8273 101.836 18.146 101.836 19.78C101.836 22.6467 101.005 24.7537 99.3422 26.101C97.6796 27.4197 95.4436 28.079 92.6342 28.079C89.9396 28.079 87.7322 27.4197 86.0122 26.101C84.3209 24.7823 83.4752 22.7327 83.4752 19.952L83.5182 19.135H87.1732L87.1302 19.952C87.1302 21.5573 87.6176 22.79 88.5922 23.65C89.5669 24.4813 90.8569 24.897 92.4622 24.897C94.2969 24.897 95.7016 24.51 96.6762 23.736C97.6796 22.962 98.1812 21.844 98.1812 20.382C98.1812 19.4073 97.9089 18.6047 97.3642 17.974C96.8482 17.3433 96.1889 16.856 95.3862 16.512C94.5836 16.1393 93.4799 15.7237 92.0752 15.265C90.3552 14.6917 88.9649 14.147 87.9042 13.631C86.8436 13.115 85.9406 12.3553 85.1952 11.352C84.4499 10.32 84.0772 8.97267 84.0772 7.31C84.0772 4.902 84.8799 3.08167 86.4852 1.849C88.0906 0.616333 90.1546 0 92.6772 0Z" fill="#4A596D"/>
<path d="M105.037 14.061C105.037 9.417 105.969 5.91967 107.832 3.569C109.696 1.18967 112.319 0 115.701 0C119.113 0 121.75 1.18967 123.613 3.569C125.477 5.91967 126.408 9.417 126.408 14.061C126.408 17.587 125.849 20.468 124.731 22.704C123.613 24.94 122.022 26.488 119.958 27.348L125.548 32.508H120.904L116.217 28.079H115.701C112.319 28.079 109.696 26.9037 107.832 24.553C105.969 22.1737 105.037 18.6763 105.037 14.061ZM108.692 15.05C108.692 18.2893 109.309 20.7403 110.541 22.403C111.774 24.0657 113.494 24.897 115.701 24.897C117.909 24.897 119.629 24.0657 120.861 22.403C122.123 20.7403 122.753 18.2893 122.753 15.05V13.072C122.753 9.83267 122.123 7.38167 120.861 5.719C119.629 4.05633 117.909 3.225 115.701 3.225C113.494 3.225 111.774 4.05633 110.541 5.719C109.309 7.38167 108.692 9.83267 108.692 13.072V15.05Z" fill="#4A596D"/>
</svg>
