<svg width="24" height="24" viewBox="0 0 24 24" fill="none" xmlns="http://www.w3.org/2000/svg">
<g clip-path="url(#clip0_14132_4144)">
<path d="M23.9971 14.5158C23.9971 15.7808 23.9971 17.0347 23.9971 18.295C23.9967 19.6876 23.484 21.0314 22.5566 22.0704C21.6292 23.1094 20.3519 23.7709 18.9681 23.9289C17.7741 24.0665 16.5706 23.9589 15.3703 23.9811C15.1157 23.9811 15.1299 23.8056 15.1299 23.6348C15.1299 22.237 15.1299 20.8407 15.1299 19.4429C15.1299 18.8737 15.1758 18.3029 15.0777 17.7352C14.944 17.0187 14.5639 16.3715 14.0031 15.9057C13.4424 15.44 12.7363 15.185 12.0073 15.185C11.2784 15.185 10.5723 15.44 10.0116 15.9057C9.45082 16.3715 9.07067 17.0187 8.93697 17.7352C8.89937 17.9678 8.88138 18.2032 8.8832 18.4388V23.5747C8.8832 23.9811 8.8832 23.9874 8.47045 23.9874C7.53423 23.9874 6.5996 23.9874 5.66496 23.9874C4.28157 23.9728 2.95049 23.4566 1.91908 22.5347C0.887662 21.6128 0.226043 20.3478 0.0571608 18.9749C0.0242817 18.692 0.00791238 18.4074 0.00813605 18.1226C0.0097175 15.7808 0.0334392 13.4406 0.000228829 11.0972C-0.0282372 9.00203 0.790951 7.35754 2.42616 6.06884C4.42827 4.49234 6.40666 2.88581 8.38189 1.28244C9.40041 0.455501 10.6717 0.00269366 11.9837 -0.000471574C13.2957 -0.00363681 14.5692 0.443031 15.5917 1.26504C17.6792 2.93799 19.7714 4.60619 21.8447 6.29654C22.5236 6.82578 23.071 7.50476 23.4441 8.28047C23.8171 9.05617 24.0059 9.90759 23.9955 10.7683C24.0066 12.0174 23.9971 13.2666 23.9971 14.5158Z" fill="#7AC9CE"/>
</g>
<defs>
<clipPath id="clip0_14132_4144">
<rect width="24" height="24" fill="white"/>
</clipPath>
</defs>
</svg>
