<svg xmlns="http://www.w3.org/2000/svg" width="25.02" height="25.021" viewBox="0 0 25.02 25.021"><g transform="translate(-15 -639.983)"><g transform="translate(15 639.983)"><g transform="translate(0 0)"><g transform="translate(0 0)"><path d="M24.688,10.7,22.6,8.8,13.22.271a1.043,1.043,0,0,0-1.4,0L2.434,8.8.349,10.7a1.042,1.042,0,1,0,1.4,1.542l.341-.31V23.978a1.042,1.042,0,0,0,1.043,1.043H8.348V16.68a4.17,4.17,0,0,1,8.34,0v8.34H21.9a1.042,1.042,0,0,0,1.043-1.043V11.929l.341.31a1.042,1.042,0,1,0,1.4-1.542Z" transform="translate(-0.008 0)" fill="#8a609c"/><path d="M215.34,298.666a2,2,0,0,0-2,2v8.008h4v-8.008A2,2,0,0,0,215.34,298.666Z" transform="translate(-202.83 -283.655)" fill="#8a609c"/></g></g></g></g></svg>
