<svg xmlns="http://www.w3.org/2000/svg" width="24.218" height="23.063" viewBox="0 0 24.218 23.063"><g transform="translate(0 -0.328)"><path d="M92.35,240.238l-.28,4.9,4.409-1.8Zm0,0" transform="translate(-86.905 -226.45)" fill="#5cccd0"/><path d="M251.224,5a2.412,2.412,0,0,0-.453-3.4l-1.04-.785a2.421,2.421,0,0,0-3.363.45l-.692.9,4.88,3.7Zm0,0" transform="translate(-231.892 0)" fill="#5cccd0"/><path d="M114.213,52.47l-4.879-3.7-7.377,9.546,4.891,3.668Zm0,0" transform="translate(-96.237 -45.72)" fill="#5cccd0"/><path d="M23.657,391.391H.561a.561.561,0,1,0,0,1.122h23.1a.561.561,0,1,0,0-1.122Zm0,0" transform="translate(0 -369.122)" fill="#5cccd0"/></g></svg>