<svg width="24" height="22" viewBox="0 0 24 22" fill="none" xmlns="http://www.w3.org/2000/svg">
<path d="M4.21617 18.3607C4.07211 18.3652 3.92882 18.3381 3.79636 18.2812C3.6639 18.2244 3.54548 18.1393 3.44942 18.0318C3.35335 17.9244 3.28197 17.7972 3.24029 17.6592C3.19861 17.5212 3.18764 17.3757 3.20814 17.233C3.44688 15.7693 3.69447 14.3084 3.945 12.8462C4.02945 12.33 4.27743 11.8546 4.65239 11.49C7.04374 9.09706 9.4346 6.70413 11.825 4.3112C11.9723 4.16379 12.0578 4.15642 12.2081 4.3112C13.8784 5.99461 15.5569 7.67359 17.2438 9.34815C17.3912 9.49556 17.406 9.57811 17.2438 9.73141C14.8397 12.1293 12.4376 14.531 10.0374 16.9367C9.61704 17.3381 9.07747 17.5917 8.50027 17.659C7.12381 17.8772 5.74883 18.1131 4.37385 18.3401C4.30901 18.3504 4.24269 18.3578 4.21617 18.3607Z" fill="#4A596D"/>
<path d="M16.9889 0.547852C19.3763 0.547852 21.1625 2.46416 20.9959 4.65318C20.9356 5.56011 20.5493 6.4146 19.9083 7.05888C19.5871 7.38908 19.2496 7.70306 18.9357 8.04063C18.7883 8.19983 18.7013 8.20867 18.5392 8.04063C16.981 6.4722 15.4169 4.90819 13.8469 3.34861C13.7084 3.20857 13.5699 3.06706 13.4284 2.92997C13.3621 2.86364 13.3326 2.8032 13.4136 2.72655C13.9604 2.21209 14.4335 1.61804 15.0613 1.19055C15.6305 0.799106 16.2987 0.576331 16.9889 0.547852Z" fill="#4A596D"/>
<path fill-rule="evenodd" clip-rule="evenodd" d="M24 21.0278C23.9989 21.2635 23.8071 21.4537 23.5714 21.4526L0.42477 21.3497C0.189131 21.3487 -0.00104298 21.1568 4.30484e-06 20.9212C0.00105159 20.6855 0.192923 20.4954 0.428562 20.4964L23.5752 20.5993C23.8109 20.6003 24.001 20.7922 24 21.0278Z" fill="#4A596D"/>
</svg>
