<svg width="15" height="12" viewBox="0 0 15 12" fill="none" xmlns="http://www.w3.org/2000/svg">
<path fill-rule="evenodd" clip-rule="evenodd" d="M0.75 4.5C0.75 2.42893 2.42893 0.75 4.5 0.75H10.5C12.5711 0.75 14.25 2.42893 14.25 4.5V7.5C14.25 9.57107 12.5711 11.25 10.5 11.25H4.5C2.42893 11.25 0.75 9.57107 0.75 7.5V4.5ZM2.7652 3.06708L7.48531 6.21382L12.0997 2.9178C11.6919 2.50547 11.1258 2.25 10.5 2.25H4.5C3.80181 2.25 3.1779 2.56801 2.7652 3.06708ZM12.7415 4.30277L7.51469 8.03618L2.25 4.52639V7.5C2.25 8.74264 3.25736 9.75 4.5 9.75H10.5C11.7426 9.75 12.75 8.74264 12.75 7.5V4.5C12.75 4.43354 12.7471 4.36776 12.7415 4.30277Z" fill="#343434"/>
</svg>
