<svg width="25" height="24" viewBox="0 0 25 24" fill="none" xmlns="http://www.w3.org/2000/svg">
<path d="M6.27147 17.6313C7.58083 19.1157 7.43899 21.3804 5.95467 22.6897C4.47035 23.9991 2.20563 23.8572 0.896274 22.3729C-0.413078 20.8886 -0.271237 18.6239 1.21308 17.3145C2.6974 16.0052 4.96212 16.147 6.27147 17.6313Z" fill="#BFBFBF"/>
<path fill-rule="evenodd" clip-rule="evenodd" d="M8.71522 16.8313C7.65346 15.2794 6.26689 14.2242 4.87515 13.919C3.42186 13.6003 2.50208 12.1638 2.82077 10.7106C3.13946 9.25726 4.57593 8.33748 6.02922 8.65617C9.16033 9.34278 11.5919 11.4941 13.1619 13.7889C14.7157 16.0598 15.7133 18.8885 15.5547 21.4211C15.4617 22.906 14.1825 24.0344 12.6976 23.9414C11.2127 23.8484 10.0843 22.5692 10.1773 21.0843C10.2412 20.0649 9.79328 18.407 8.71522 16.8313Z" fill="#BFBFBF"/>
<path fill-rule="evenodd" clip-rule="evenodd" d="M15.0959 10.8151C12.6602 7.88014 9.37055 5.88979 6.1651 5.35106C4.69785 5.10446 3.70832 3.71511 3.95492 2.24787C4.20152 0.780619 5.59086 -0.208913 7.05811 0.0376852C11.7244 0.821948 16.1113 3.60184 19.242 7.37418C22.385 11.1613 24.4192 16.1401 24.0851 21.4744C23.9921 22.9593 22.7129 24.0876 21.228 23.9946C19.7431 23.9016 18.6147 22.6225 18.7077 21.1376C18.9417 17.4007 17.5194 13.7352 15.0959 10.8151Z" fill="#BFBFBF"/>
</svg>
