<svg width="20" height="16" viewBox="0 0 20 16" fill="none" xmlns="http://www.w3.org/2000/svg">
<g clip-path="url(#clip0_12985_3398)">
<path d="M19.3684 4.3229V14.6487C19.3421 14.7237 19.3171 14.8014 19.2893 14.8764C19.1755 15.2005 18.9626 15.4822 18.6796 15.6828C18.3966 15.8835 18.0575 15.9933 17.7086 15.9973C12.3618 15.9973 7.01451 15.9973 1.66677 15.9973C1.22698 15.9913 0.806923 15.817 0.495915 15.5114C0.184908 15.2058 0.00748939 14.7931 0.00138782 14.3609C0.000462607 11.1108 0 7.86118 0 4.612C0.00645108 4.17997 0.183982 3.76742 0.494915 3.4619C0.805847 3.15637 1.22571 2.98193 1.66538 2.97559C7.01312 2.97559 12.3604 2.97559 17.7072 2.97559C17.9535 2.97497 18.1966 3.03003 18.4178 3.1365C18.6557 3.25282 18.8644 3.41958 19.0288 3.62474C19.1932 3.8299 19.3092 4.06835 19.3684 4.3229ZM13.8782 9.46941C13.8255 7.16207 12.0019 5.37839 9.68144 5.38657C8.58813 5.40998 7.54789 5.85428 6.78465 6.62383C6.02141 7.39338 5.59621 8.42664 5.60058 9.50117C5.60494 10.5757 6.03853 11.6056 6.80799 12.3691C7.57746 13.1327 8.62128 13.5688 9.71474 13.5836C12.0574 13.5727 13.8393 11.7495 13.8782 9.46941ZM3.94696 6.46933C4.22453 6.46933 4.50209 6.46933 4.77965 6.46933C5.1502 6.46933 5.41944 6.22796 5.4125 5.92386C5.40556 5.61976 5.14465 5.39202 4.78382 5.3893C4.22869 5.3893 3.67356 5.3893 3.12537 5.3893C2.76731 5.3893 2.50363 5.62521 2.50224 5.93477C2.50085 6.24432 2.76454 6.47205 3.12121 6.48024C3.38628 6.4666 3.66385 6.46251 3.94002 6.46251L3.94696 6.46933Z" fill="#828282"/>
<path d="M9.68953 1.88608H5.45945C5.19716 1.88608 5.19577 1.88608 5.24989 1.62425C5.30402 1.36243 5.34565 1.11424 5.41227 0.86196C5.46861 0.614946 5.60969 0.394486 5.81184 0.237564C6.014 0.0806423 6.26492 -0.00319504 6.52252 0.000116982H12.8663C13.1215 -0.00352934 13.3703 0.078162 13.5721 0.231789C13.7738 0.385415 13.9164 0.601854 13.9765 0.845596C14.0445 1.11833 14.0917 1.39107 14.1486 1.6638C14.1916 1.87381 14.1819 1.88608 13.964 1.88608H9.68953Z" fill="#828282"/>
<path d="M6.61589 9.47594C6.61756 8.87736 6.80002 8.29274 7.14016 7.79615C7.48029 7.29957 7.9628 6.91337 8.52653 6.6865C9.09025 6.45963 9.70983 6.4023 10.3068 6.52176C10.9037 6.64123 11.4511 6.93212 11.8796 7.35758C12.3081 7.78303 12.5984 8.3239 12.7138 8.91165C12.8292 9.4994 12.7644 10.1076 12.5276 10.6591C12.2909 11.2106 11.8929 11.6807 11.384 12.0097C10.8751 12.3388 10.2783 12.512 9.66909 12.5074C9.26544 12.5074 8.86579 12.4288 8.49326 12.2761C8.12074 12.1233 7.78273 11.8995 7.49879 11.6176C7.21485 11.3357 6.99062 11.0013 6.83908 10.6337C6.68753 10.266 6.61167 9.87254 6.61589 9.47594Z" fill="#828282"/>
</g>
<defs>
<clipPath id="clip0_12985_3398">
<rect width="19.3684" height="16" fill="white"/>
</clipPath>
</defs>
</svg>
