<svg width="17" height="15" viewBox="0 0 17 15" fill="none" xmlns="http://www.w3.org/2000/svg">
<g clip-path="url(#clip0_12985_3402)">
<path d="M16.3687 2.99661V12.6141L16.3149 12.8256C15.9966 14.0829 14.8339 14.9969 13.5362 14.9978C10.0963 15.0003 6.65659 15.0003 3.217 14.9978C1.65934 14.9978 0.37075 13.7046 0.369916 12.1532C0.369082 9.29733 0.368665 6.44037 0.368665 3.5823C0.368242 3.43669 0.3787 3.29126 0.399951 3.14721C0.595597 1.81606 1.82203 0.74022 3.16861 0.738969C6.6602 0.734797 10.1519 0.734797 13.6438 0.738969C14.3609 0.74022 14.9825 1.00595 15.5114 1.48693C15.9628 1.89574 16.2306 2.40968 16.3687 2.99661ZM8.37513 2.40968C6.65311 2.40968 4.93109 2.40676 3.20908 2.40968C2.56249 2.40968 2.01768 2.95198 2.01685 3.59023C2.01406 6.46749 2.01406 9.34461 2.01685 12.2216C2.01685 12.8582 2.56833 13.4105 3.20741 13.4113C6.6723 13.4147 10.1373 13.4147 13.6025 13.4113C13.9625 13.4113 14.2549 13.2549 14.4731 12.9666C14.6533 12.7284 14.7142 12.456 14.7138 12.1607C14.7116 9.33015 14.7116 6.49975 14.7138 3.66949C14.7185 3.5551 14.7086 3.44059 14.6846 3.32867C14.62 3.06656 14.4694 2.83368 14.2568 2.6673C14.0442 2.50092 13.7819 2.41065 13.512 2.41093C11.7994 2.40815 10.0871 2.40773 8.37513 2.40968Z" fill="#828282"/>
<path d="M8.33003 12.083C7.14865 12.083 5.96754 12.083 4.78671 12.083C4.68785 12.083 4.58898 12.0718 4.49053 12.0726C3.80139 12.0772 3.40593 11.3401 3.80473 10.7035C4.03625 10.3326 4.27236 9.9647 4.50639 9.59593C4.85179 9.05113 5.19775 8.5066 5.54427 7.96235C5.77746 7.59734 6.17 7.42547 6.54294 7.51683C6.70622 7.55655 6.85069 7.65164 6.95175 7.7859C7.08024 7.94984 7.2083 8.11378 7.33971 8.27564C7.69304 8.71073 8.31168 8.69821 8.63581 8.23851C8.98372 7.7446 9.31494 7.23817 9.65867 6.74342C9.88602 6.41554 10.2064 6.29123 10.596 6.36465C10.7254 6.38485 10.8474 6.43797 10.9503 6.51891C11.0533 6.59985 11.1337 6.70589 11.1838 6.82686C11.7595 8.16467 12.3364 9.50207 12.9012 10.8445C12.9927 11.0578 12.9974 11.2984 12.9143 11.5151C12.8313 11.7319 12.6671 11.9078 12.4565 12.0054C12.2947 12.0784 12.1228 12.0784 11.9514 12.0788C10.7441 12.0816 9.537 12.083 8.33003 12.083Z" fill="#828282"/>
<path d="M13.3803 4.74098C13.3778 5.38423 12.7921 5.9695 12.1476 5.972C11.4873 5.972 10.9379 5.38798 10.9175 4.71219C10.8966 4.00303 11.5878 3.50244 12.1564 3.50244C12.7997 3.50244 13.3837 4.09522 13.3803 4.74098Z" fill="#828282"/>
</g>
<defs>
<clipPath id="clip0_12985_3402">
<rect width="16" height="14.2638" fill="white" transform="translate(0.368652 0.736328)"/>
</clipPath>
</defs>
</svg>
