<svg width="25" height="24" viewBox="0 0 25 24" fill="none" xmlns="http://www.w3.org/2000/svg">
<path fill-rule="evenodd" clip-rule="evenodd" d="M15.7771 10.3985C15.7771 13.369 13.369 15.7771 10.3985 15.7771C7.42805 15.7771 5.01998 13.369 5.01998 10.3985C5.01998 7.42805 7.42805 5.01998 10.3985 5.01998C13.369 5.01998 15.7771 7.42805 15.7771 10.3985ZM16.2511 18.9949C14.584 20.1322 12.5689 20.7971 10.3985 20.7971C4.65558 20.7971 0 16.1415 0 10.3985C0 4.65558 4.65558 0 10.3985 0C16.1415 0 20.7971 4.65558 20.7971 10.3985C20.7971 12.3029 20.2852 14.0876 19.3915 15.6228C19.7077 15.7349 20.0066 15.9126 20.2671 16.1567L24.0054 19.6581C25.0171 20.6057 25.0691 22.1941 24.1214 23.2059C23.1738 24.2176 21.5854 24.2696 20.5737 23.3219L16.8354 19.8205C16.5786 19.58 16.3836 19.2981 16.2511 18.9949Z" fill="#BFBFBF"/>
</svg>
