<svg width="53" height="53" viewBox="0 0 53 53" fill="none" xmlns="http://www.w3.org/2000/svg">
<path d="M9.91776 51.227C8.78069 52.3668 7.39094 53 5.74851 53C2.52682 53 0 50.4038 0 47.1744C0 45.6547 0.568534 44.2616 1.7056 43.1852L18.3194 26.4683L1.7056 9.81481C0.568534 8.73835 0 7.34528 0 5.82557C0 2.59618 2.52682 0.126643 5.74851 0.126643C7.39094 0.126643 8.71752 0.633214 9.79142 1.773L26.4052 18.4265L43.1454 1.70968C44.3456 0.506571 45.6091 0 47.1883 0C50.41 0 53 2.53286 53 5.76225C53 7.28196 52.4315 8.61171 51.2312 9.75149L34.6174 26.4683L51.1681 43.1219C52.3051 44.2616 52.9368 45.5914 52.9368 47.1744C52.9368 50.4038 50.41 53 47.1883 53C45.4827 53 44.093 52.3668 43.0191 51.227L26.4052 34.6368L9.91776 51.227Z" fill="white"/>
</svg>
