<svg xmlns="http://www.w3.org/2000/svg" width="24.068" height="24.068" viewBox="0 0 24.068 24.068"><g transform="translate(0)"><g transform="translate(0 15.472)"><g transform="translate(0)"><path d="M19.4,308.464l-3.659-1.22a.861.861,0,0,0-.272-.045H8.6a.86.86,0,0,0-.272.045l-3.659,1.22A6.813,6.813,0,0,0,0,314.935a.86.86,0,0,0,.86.86H23.209a.86.86,0,0,0,.86-.86A6.813,6.813,0,0,0,19.4,308.464Z" transform="translate(0 -307.199)" fill="#d65745"/></g></g><g transform="translate(6.877)"><path d="M141.69,0a5.157,5.157,0,0,0-5.157,5.157V8.6a5.157,5.157,0,1,0,10.315,0V5.157A5.157,5.157,0,0,0,141.69,0Z" transform="translate(-136.533)" fill="#d65745"/></g></g></svg>
